<mxfile host="app.diagrams.net" modified="2024-06-16T21:05:41.015Z" agent="Mozilla/5.0 (Windows NT 10.0; Win64; x64; rv:126.0) Gecko/20100101 Firefox/126.0" etag="BXufX6e1_w23ztomH3TC" version="24.5.4" type="github">
  <diagram name="Page-1" id="e7e014a7-5840-1c2e-5031-d8a46d1fe8dd">
    <mxGraphModel dx="1434" dy="746" grid="1" gridSize="10" guides="1" tooltips="1" connect="1" arrows="1" fold="1" page="1" pageScale="1" pageWidth="1169" pageHeight="826" background="none" math="0" shadow="0">
      <root>
        <mxCell id="0" />
        <mxCell id="1" parent="0" />
        <mxCell id="2" value="Sistema" style="swimlane;whiteSpace=wrap" parent="1" vertex="1">
          <mxGeometry x="430" y="90" width="440" height="570" as="geometry" />
        </mxCell>
        <mxCell id="q_5Y22z5ufrm5lt5-wSx-42" value="Fazer login" style="ellipse;whiteSpace=wrap;html=1;" vertex="1" parent="2">
          <mxGeometry x="20" y="100" width="120" height="80" as="geometry" />
        </mxCell>
        <mxCell id="q_5Y22z5ufrm5lt5-wSx-43" value="Registrar" style="ellipse;whiteSpace=wrap;html=1;" vertex="1" parent="2">
          <mxGeometry x="95" y="243" width="120" height="80" as="geometry" />
        </mxCell>
        <mxCell id="q_5Y22z5ufrm5lt5-wSx-44" value="Escolher plano" style="ellipse;whiteSpace=wrap;html=1;" vertex="1" parent="2">
          <mxGeometry x="310" y="283" width="120" height="80" as="geometry" />
        </mxCell>
        <mxCell id="q_5Y22z5ufrm5lt5-wSx-52" value="" style="endArrow=classic;html=1;rounded=0;entryX=0;entryY=0.5;entryDx=0;entryDy=0;exitX=1;exitY=0.5;exitDx=0;exitDy=0;" edge="1" parent="2" source="q_5Y22z5ufrm5lt5-wSx-43" target="q_5Y22z5ufrm5lt5-wSx-44">
          <mxGeometry relative="1" as="geometry">
            <mxPoint x="100" y="300" as="sourcePoint" />
            <mxPoint x="290" y="270" as="targetPoint" />
          </mxGeometry>
        </mxCell>
        <mxCell id="q_5Y22z5ufrm5lt5-wSx-53" value="Label" style="edgeLabel;resizable=0;html=1;;align=center;verticalAlign=middle;" connectable="0" vertex="1" parent="q_5Y22z5ufrm5lt5-wSx-52">
          <mxGeometry relative="1" as="geometry" />
        </mxCell>
        <mxCell id="q_5Y22z5ufrm5lt5-wSx-55" value="&amp;lt;&amp;lt; Include &amp;gt;&amp;gt;" style="edgeLabel;html=1;align=center;verticalAlign=middle;resizable=0;points=[];" vertex="1" connectable="0" parent="q_5Y22z5ufrm5lt5-wSx-52">
          <mxGeometry x="-0.0353" y="-2" relative="1" as="geometry">
            <mxPoint as="offset" />
          </mxGeometry>
        </mxCell>
        <mxCell id="q_5Y22z5ufrm5lt5-wSx-59" value="" style="endArrow=classic;html=1;rounded=0;exitX=0.5;exitY=1;exitDx=0;exitDy=0;" edge="1" parent="2" source="q_5Y22z5ufrm5lt5-wSx-42" target="q_5Y22z5ufrm5lt5-wSx-43">
          <mxGeometry relative="1" as="geometry">
            <mxPoint x="30" y="220" as="sourcePoint" />
            <mxPoint x="200" y="220" as="targetPoint" />
          </mxGeometry>
        </mxCell>
        <mxCell id="q_5Y22z5ufrm5lt5-wSx-60" value="Label" style="edgeLabel;resizable=0;html=1;;align=center;verticalAlign=middle;" connectable="0" vertex="1" parent="q_5Y22z5ufrm5lt5-wSx-59">
          <mxGeometry relative="1" as="geometry" />
        </mxCell>
        <mxCell id="q_5Y22z5ufrm5lt5-wSx-61" value="&amp;lt;&amp;lt; Include &amp;gt;&amp;gt;" style="edgeLabel;html=1;align=center;verticalAlign=middle;resizable=0;points=[];" vertex="1" connectable="0" parent="q_5Y22z5ufrm5lt5-wSx-59">
          <mxGeometry x="-0.0353" y="-2" relative="1" as="geometry">
            <mxPoint as="offset" />
          </mxGeometry>
        </mxCell>
        <mxCell id="q_5Y22z5ufrm5lt5-wSx-62" style="edgeStyle=orthogonalEdgeStyle;rounded=0;orthogonalLoop=1;jettySize=auto;html=1;entryX=0;entryY=0.5;entryDx=0;entryDy=0;" edge="1" parent="1" source="q_5Y22z5ufrm5lt5-wSx-41" target="q_5Y22z5ufrm5lt5-wSx-42">
          <mxGeometry relative="1" as="geometry" />
        </mxCell>
        <mxCell id="q_5Y22z5ufrm5lt5-wSx-41" value="UsuÃ¡rio" style="shape=umlActor;verticalLabelPosition=bottom;verticalAlign=top;html=1;" vertex="1" parent="1">
          <mxGeometry x="240" y="200" width="30" height="60" as="geometry" />
        </mxCell>
      </root>
    </mxGraphModel>
  </diagram>
</mxfile>
